<mxfile host="app.diagrams.net" modified="2022-08-24T00:33:25.314Z" agent="5.0 (Windows NT 10.0; Win64; x64) AppleWebKit/537.36 (KHTML, like Gecko) Chrome/104.0.0.0 Safari/537.36" etag="ua51rQ0t3ljKEjX9yaaC" version="20.2.7" type="github">
  <diagram id="9sZJiR6UuRqM_wzUEQ5R" name="Page-1">
    <mxGraphModel dx="868" dy="488" grid="0" gridSize="10" guides="1" tooltips="1" connect="1" arrows="1" fold="1" page="1" pageScale="1" pageWidth="827" pageHeight="1169" background="#FFE6EC" math="0" shadow="0">
      <root>
        <mxCell id="0" />
        <mxCell id="1" parent="0" />
        <mxCell id="2ojvgH5L2LYXK-cJFL5i-22" value="" style="edgeStyle=orthogonalEdgeStyle;rounded=0;orthogonalLoop=1;jettySize=auto;html=1;" parent="1" source="2ojvgH5L2LYXK-cJFL5i-1" target="2ojvgH5L2LYXK-cJFL5i-20" edge="1">
          <mxGeometry relative="1" as="geometry" />
        </mxCell>
        <mxCell id="2ojvgH5L2LYXK-cJFL5i-23" value="" style="edgeStyle=orthogonalEdgeStyle;rounded=0;orthogonalLoop=1;jettySize=auto;html=1;" parent="1" source="2ojvgH5L2LYXK-cJFL5i-1" target="2ojvgH5L2LYXK-cJFL5i-18" edge="1">
          <mxGeometry relative="1" as="geometry" />
        </mxCell>
        <mxCell id="2ojvgH5L2LYXK-cJFL5i-1" value="is n copy&amp;gt;0;&amp;nbsp;" style="rhombus;whiteSpace=wrap;html=1;" parent="1" vertex="1">
          <mxGeometry x="333" y="343" width="80" height="80" as="geometry" />
        </mxCell>
        <mxCell id="2ojvgH5L2LYXK-cJFL5i-15" value="" style="edgeStyle=orthogonalEdgeStyle;rounded=0;orthogonalLoop=1;jettySize=auto;html=1;" parent="1" source="2ojvgH5L2LYXK-cJFL5i-4" target="2ojvgH5L2LYXK-cJFL5i-14" edge="1">
          <mxGeometry relative="1" as="geometry" />
        </mxCell>
        <mxCell id="2ojvgH5L2LYXK-cJFL5i-4" value="input: int xn 1234" style="shape=parallelogram;perimeter=parallelogramPerimeter;whiteSpace=wrap;html=1;fixedSize=1;" parent="1" vertex="1">
          <mxGeometry x="313" y="202" width="120" height="30" as="geometry" />
        </mxCell>
        <mxCell id="2ojvgH5L2LYXK-cJFL5i-13" value="" style="edgeStyle=orthogonalEdgeStyle;rounded=0;orthogonalLoop=1;jettySize=auto;html=1;" parent="1" source="2ojvgH5L2LYXK-cJFL5i-11" target="2ojvgH5L2LYXK-cJFL5i-4" edge="1">
          <mxGeometry relative="1" as="geometry" />
        </mxCell>
        <mxCell id="2ojvgH5L2LYXK-cJFL5i-11" value="Start" style="ellipse;whiteSpace=wrap;html=1;fillColor=#f5f5f5;fontColor=#333333;strokeColor=#666666;" parent="1" vertex="1">
          <mxGeometry x="323" y="135" width="100" height="50" as="geometry" />
        </mxCell>
        <mxCell id="2ojvgH5L2LYXK-cJFL5i-16" value="" style="edgeStyle=orthogonalEdgeStyle;rounded=0;orthogonalLoop=1;jettySize=auto;html=1;" parent="1" source="2ojvgH5L2LYXK-cJFL5i-14" target="2ojvgH5L2LYXK-cJFL5i-1" edge="1">
          <mxGeometry relative="1" as="geometry" />
        </mxCell>
        <mxCell id="2ojvgH5L2LYXK-cJFL5i-14" value="Initialize in x copy, equal to n" style="rounded=0;whiteSpace=wrap;html=1;" parent="1" vertex="1">
          <mxGeometry x="323" y="270" width="100" height="40" as="geometry" />
        </mxCell>
        <mxCell id="2ojvgH5L2LYXK-cJFL5i-18" value="End" style="ellipse;whiteSpace=wrap;html=1;" parent="1" vertex="1">
          <mxGeometry x="453" y="358" width="100" height="50" as="geometry" />
        </mxCell>
        <mxCell id="2ojvgH5L2LYXK-cJFL5i-26" value="" style="edgeStyle=orthogonalEdgeStyle;rounded=0;orthogonalLoop=1;jettySize=auto;html=1;" parent="1" source="2ojvgH5L2LYXK-cJFL5i-20" target="2ojvgH5L2LYXK-cJFL5i-25" edge="1">
          <mxGeometry relative="1" as="geometry" />
        </mxCell>
        <mxCell id="2ojvgH5L2LYXK-cJFL5i-20" value="r=xcopy%&lt;br&gt;&lt;br&gt;while (xcopy&amp;gt;0)(sum= sum+r*r);" style="rounded=0;whiteSpace=wrap;html=1;" parent="1" vertex="1">
          <mxGeometry x="298" y="459" width="150" height="80" as="geometry" />
        </mxCell>
        <mxCell id="2ojvgH5L2LYXK-cJFL5i-24" value="False" style="text;html=1;align=center;verticalAlign=middle;resizable=0;points=[];autosize=1;strokeColor=none;fillColor=none;" parent="1" vertex="1">
          <mxGeometry x="403" y="375" width="50" height="30" as="geometry" />
        </mxCell>
        <mxCell id="2ojvgH5L2LYXK-cJFL5i-29" value="" style="edgeStyle=orthogonalEdgeStyle;rounded=0;orthogonalLoop=1;jettySize=auto;html=1;" parent="1" source="2ojvgH5L2LYXK-cJFL5i-25" target="2ojvgH5L2LYXK-cJFL5i-28" edge="1">
          <mxGeometry relative="1" as="geometry" />
        </mxCell>
        <mxCell id="2ojvgH5L2LYXK-cJFL5i-25" value="Print Sum" style="shape=parallelogram;perimeter=parallelogramPerimeter;whiteSpace=wrap;html=1;fixedSize=1;" parent="1" vertex="1">
          <mxGeometry x="313" y="568" width="120" height="60" as="geometry" />
        </mxCell>
        <mxCell id="2ojvgH5L2LYXK-cJFL5i-27" value="True" style="text;html=1;align=center;verticalAlign=middle;resizable=0;points=[];autosize=1;strokeColor=none;fillColor=none;" parent="1" vertex="1">
          <mxGeometry x="367" y="420" width="50" height="30" as="geometry" />
        </mxCell>
        <mxCell id="2ojvgH5L2LYXK-cJFL5i-28" value="End" style="ellipse;whiteSpace=wrap;html=1;fillColor=#e1d5e7;strokeColor=#9673a6;" parent="1" vertex="1">
          <mxGeometry x="313" y="661" width="120" height="60" as="geometry" />
        </mxCell>
        <mxCell id="2ojvgH5L2LYXK-cJFL5i-31" value="&lt;font style=&quot;font-size: 24px;&quot;&gt;&lt;i&gt;&lt;b&gt;&lt;u&gt;Flow Chart for ALX Onboarding&lt;/u&gt;&lt;/b&gt;&lt;/i&gt;&lt;/font&gt;" style="text;html=1;align=center;verticalAlign=middle;resizable=0;points=[];autosize=1;strokeColor=none;fillColor=none;shadow=0;sketch=0;rounded=0;" parent="1" vertex="1">
          <mxGeometry x="185" y="69" width="377" height="41" as="geometry" />
        </mxCell>
      </root>
    </mxGraphModel>
  </diagram>
</mxfile>
